<mxfile host="app.diagrams.net" modified="2022-10-25T08:27:04.397Z" agent="5.0 (X11; Linux x86_64) AppleWebKit/537.36 (KHTML, like Gecko) Chrome/96.0.4664.45 Safari/537.36" etag="2kxWVll-tVfRFDI8F3h0" version="20.5.1" type="github">
  <diagram id="whu691uokbLX-22fUmAk" name="Page-1">
    <mxGraphModel dx="1967" dy="643" grid="1" gridSize="10" guides="1" tooltips="1" connect="1" arrows="1" fold="1" page="1" pageScale="1" pageWidth="850" pageHeight="1100" math="0" shadow="0">
      <root>
        <mxCell id="0" />
        <mxCell id="1" parent="0" />
        <mxCell id="BBq_c_9lFQ12t3UlsD03-7" style="edgeStyle=orthogonalEdgeStyle;rounded=0;orthogonalLoop=1;jettySize=auto;html=1;entryX=1;entryY=0.5;entryDx=0;entryDy=0;fontColor=#000000;" parent="1" source="BBq_c_9lFQ12t3UlsD03-1" target="BBq_c_9lFQ12t3UlsD03-6" edge="1">
          <mxGeometry relative="1" as="geometry" />
        </mxCell>
        <mxCell id="BBq_c_9lFQ12t3UlsD03-9" style="edgeStyle=orthogonalEdgeStyle;rounded=0;orthogonalLoop=1;jettySize=auto;html=1;exitX=1;exitY=0.5;exitDx=0;exitDy=0;entryX=0;entryY=0.5;entryDx=0;entryDy=0;fontColor=#000000;" parent="1" source="BBq_c_9lFQ12t3UlsD03-1" target="BBq_c_9lFQ12t3UlsD03-8" edge="1">
          <mxGeometry relative="1" as="geometry" />
        </mxCell>
        <mxCell id="BBq_c_9lFQ12t3UlsD03-11" style="edgeStyle=orthogonalEdgeStyle;rounded=0;orthogonalLoop=1;jettySize=auto;html=1;entryX=0.5;entryY=0;entryDx=0;entryDy=0;fontColor=#FF3030;" parent="1" source="BBq_c_9lFQ12t3UlsD03-1" target="BBq_c_9lFQ12t3UlsD03-10" edge="1">
          <mxGeometry relative="1" as="geometry" />
        </mxCell>
        <mxCell id="BBq_c_9lFQ12t3UlsD03-1" value="&lt;font color=&quot;#ff1717&quot;&gt;Annabelle McAlister&lt;br&gt;(Act I)&lt;/font&gt;" style="rounded=0;whiteSpace=wrap;html=1;" parent="1" vertex="1">
          <mxGeometry x="400" y="210" width="130" height="60" as="geometry" />
        </mxCell>
        <mxCell id="BBq_c_9lFQ12t3UlsD03-2" value="The Monk&lt;br&gt;(Pre-Act I)" style="rounded=0;whiteSpace=wrap;html=1;" parent="1" vertex="1">
          <mxGeometry x="-160" y="50" width="100" height="40" as="geometry" />
        </mxCell>
        <mxCell id="BBq_c_9lFQ12t3UlsD03-42" style="edgeStyle=orthogonalEdgeStyle;rounded=0;orthogonalLoop=1;jettySize=auto;html=1;exitX=1;exitY=0.5;exitDx=0;exitDy=0;entryX=0;entryY=0.5;entryDx=0;entryDy=0;fontColor=#000000;" parent="1" source="BBq_c_9lFQ12t3UlsD03-3" target="BBq_c_9lFQ12t3UlsD03-2" edge="1">
          <mxGeometry relative="1" as="geometry" />
        </mxCell>
        <mxCell id="BBq_c_9lFQ12t3UlsD03-3" value="The Gambler&lt;br&gt;(Pre-Act I)" style="rounded=0;whiteSpace=wrap;html=1;" parent="1" vertex="1">
          <mxGeometry x="-280" y="50" width="100" height="40" as="geometry" />
        </mxCell>
        <mxCell id="BBq_c_9lFQ12t3UlsD03-15" style="edgeStyle=orthogonalEdgeStyle;rounded=0;orthogonalLoop=1;jettySize=auto;html=1;fontColor=#000000;" parent="1" source="BBq_c_9lFQ12t3UlsD03-4" target="BBq_c_9lFQ12t3UlsD03-13" edge="1">
          <mxGeometry relative="1" as="geometry" />
        </mxCell>
        <mxCell id="BBq_c_9lFQ12t3UlsD03-4" value="Red Haired Dwarf Mob Boss&lt;br&gt;(Act I)" style="rounded=0;whiteSpace=wrap;html=1;" parent="1" vertex="1">
          <mxGeometry x="-125" y="260" width="110" height="50" as="geometry" />
        </mxCell>
        <mxCell id="BBq_c_9lFQ12t3UlsD03-5" value="Castratti&amp;nbsp; Zeppelin Boss&lt;br&gt;(Act I)" style="rounded=0;whiteSpace=wrap;html=1;" parent="1" vertex="1">
          <mxGeometry x="310" y="40" width="115" height="50" as="geometry" />
        </mxCell>
        <mxCell id="BBq_c_9lFQ12t3UlsD03-28" style="edgeStyle=orthogonalEdgeStyle;rounded=0;orthogonalLoop=1;jettySize=auto;html=1;entryX=0.5;entryY=0;entryDx=0;entryDy=0;fontColor=#000000;" parent="1" source="BBq_c_9lFQ12t3UlsD03-6" target="BBq_c_9lFQ12t3UlsD03-12" edge="1">
          <mxGeometry relative="1" as="geometry" />
        </mxCell>
        <mxCell id="BBq_c_9lFQ12t3UlsD03-41" style="edgeStyle=orthogonalEdgeStyle;rounded=0;orthogonalLoop=1;jettySize=auto;html=1;entryX=0.625;entryY=0.2;entryDx=0;entryDy=0;entryPerimeter=0;fontColor=#000000;" parent="1" source="BBq_c_9lFQ12t3UlsD03-6" target="BBq_c_9lFQ12t3UlsD03-40" edge="1">
          <mxGeometry relative="1" as="geometry" />
        </mxCell>
        <mxCell id="BBq_c_9lFQ12t3UlsD03-56" style="edgeStyle=orthogonalEdgeStyle;rounded=0;orthogonalLoop=1;jettySize=auto;html=1;exitX=0;exitY=1;exitDx=0;exitDy=0;entryX=0;entryY=0.5;entryDx=0;entryDy=0;fontColor=#000000;" parent="1" source="BBq_c_9lFQ12t3UlsD03-6" target="BBq_c_9lFQ12t3UlsD03-53" edge="1">
          <mxGeometry relative="1" as="geometry" />
        </mxCell>
        <mxCell id="BBq_c_9lFQ12t3UlsD03-6" value="&lt;font color=&quot;#000000&quot;&gt;Jasper (Reanimated)&lt;br&gt;(Act I)&lt;br&gt;&lt;/font&gt;" style="rounded=0;whiteSpace=wrap;html=1;fontColor=#FF1717;" parent="1" vertex="1">
          <mxGeometry x="190" y="210" width="120" height="60" as="geometry" />
        </mxCell>
        <mxCell id="BBq_c_9lFQ12t3UlsD03-8" value="Husband no one cares about (Act II)&lt;br&gt;" style="rounded=0;whiteSpace=wrap;html=1;fontColor=#000000;" parent="1" vertex="1">
          <mxGeometry x="570" y="210" width="120" height="60" as="geometry" />
        </mxCell>
        <mxCell id="BBq_c_9lFQ12t3UlsD03-29" style="edgeStyle=orthogonalEdgeStyle;rounded=0;orthogonalLoop=1;jettySize=auto;html=1;entryX=1;entryY=0.5;entryDx=0;entryDy=0;fontColor=#000000;" parent="1" source="BBq_c_9lFQ12t3UlsD03-10" target="BBq_c_9lFQ12t3UlsD03-12" edge="1">
          <mxGeometry relative="1" as="geometry" />
        </mxCell>
        <mxCell id="BBq_c_9lFQ12t3UlsD03-33" style="edgeStyle=orthogonalEdgeStyle;rounded=0;orthogonalLoop=1;jettySize=auto;html=1;entryX=0.5;entryY=0;entryDx=0;entryDy=0;fontColor=#000000;" parent="1" source="BBq_c_9lFQ12t3UlsD03-10" target="BBq_c_9lFQ12t3UlsD03-32" edge="1">
          <mxGeometry relative="1" as="geometry" />
        </mxCell>
        <mxCell id="BBq_c_9lFQ12t3UlsD03-10" value="&lt;font color=&quot;#ff3030&quot;&gt;Edgar McAlister&lt;br&gt;(SUPER Evil)&lt;br&gt;(Act II)&lt;/font&gt;" style="rounded=0;whiteSpace=wrap;html=1;fontColor=#000000;" parent="1" vertex="1">
          <mxGeometry x="500" y="330" width="120" height="60" as="geometry" />
        </mxCell>
        <mxCell id="BBq_c_9lFQ12t3UlsD03-26" style="edgeStyle=orthogonalEdgeStyle;rounded=0;orthogonalLoop=1;jettySize=auto;html=1;exitX=0;exitY=0.5;exitDx=0;exitDy=0;entryX=1;entryY=0.5;entryDx=0;entryDy=0;fontColor=#000000;startArrow=none;" parent="1" source="BBq_c_9lFQ12t3UlsD03-27" target="BBq_c_9lFQ12t3UlsD03-25" edge="1">
          <mxGeometry relative="1" as="geometry" />
        </mxCell>
        <mxCell id="BBq_c_9lFQ12t3UlsD03-34" style="edgeStyle=orthogonalEdgeStyle;rounded=0;orthogonalLoop=1;jettySize=auto;html=1;exitX=0.5;exitY=1;exitDx=0;exitDy=0;entryX=0.5;entryY=0;entryDx=0;entryDy=0;fontColor=#000000;" parent="1" source="BBq_c_9lFQ12t3UlsD03-12" target="BBq_c_9lFQ12t3UlsD03-32" edge="1">
          <mxGeometry relative="1" as="geometry" />
        </mxCell>
        <mxCell id="BBq_c_9lFQ12t3UlsD03-12" value="&lt;font color=&quot;#000000&quot;&gt;Faye&lt;br&gt;(Act II)&lt;br&gt;&lt;/font&gt;" style="rounded=0;whiteSpace=wrap;html=1;fontColor=#FF3030;" parent="1" vertex="1">
          <mxGeometry x="290" y="330" width="120" height="60" as="geometry" />
        </mxCell>
        <mxCell id="BBq_c_9lFQ12t3UlsD03-13" value="Mob Boss&#39;s Son&lt;br&gt;(Act II)" style="rounded=0;whiteSpace=wrap;html=1;fontColor=#000000;" parent="1" vertex="1">
          <mxGeometry x="-130" y="330" width="120" height="60" as="geometry" />
        </mxCell>
        <mxCell id="BBq_c_9lFQ12t3UlsD03-20" style="edgeStyle=orthogonalEdgeStyle;rounded=0;orthogonalLoop=1;jettySize=auto;html=1;exitX=0.5;exitY=1;exitDx=0;exitDy=0;entryX=0.5;entryY=0;entryDx=0;entryDy=0;fontColor=#000000;" parent="1" source="BBq_c_9lFQ12t3UlsD03-16" target="BBq_c_9lFQ12t3UlsD03-19" edge="1">
          <mxGeometry relative="1" as="geometry" />
        </mxCell>
        <mxCell id="BBq_c_9lFQ12t3UlsD03-16" value="Thief Girl 1&lt;br&gt;(Act II)" style="rounded=0;whiteSpace=wrap;html=1;fontColor=#000000;" parent="1" vertex="1">
          <mxGeometry x="170" y="40" width="120" height="60" as="geometry" />
        </mxCell>
        <mxCell id="BBq_c_9lFQ12t3UlsD03-23" style="edgeStyle=orthogonalEdgeStyle;rounded=0;orthogonalLoop=1;jettySize=auto;html=1;exitX=1;exitY=0.5;exitDx=0;exitDy=0;entryX=0;entryY=0.5;entryDx=0;entryDy=0;fontColor=#000000;" parent="1" source="BBq_c_9lFQ12t3UlsD03-17" target="BBq_c_9lFQ12t3UlsD03-16" edge="1">
          <mxGeometry relative="1" as="geometry" />
        </mxCell>
        <mxCell id="BBq_c_9lFQ12t3UlsD03-17" value="Thief Girl 2&lt;br&gt;(Act II)" style="rounded=0;whiteSpace=wrap;html=1;fontColor=#000000;" parent="1" vertex="1">
          <mxGeometry x="40" y="40" width="120" height="60" as="geometry" />
        </mxCell>
        <mxCell id="BBq_c_9lFQ12t3UlsD03-22" style="edgeStyle=orthogonalEdgeStyle;rounded=0;orthogonalLoop=1;jettySize=auto;html=1;exitX=0.5;exitY=0;exitDx=0;exitDy=0;entryX=0.5;entryY=1;entryDx=0;entryDy=0;fontColor=#000000;" parent="1" source="BBq_c_9lFQ12t3UlsD03-18" target="BBq_c_9lFQ12t3UlsD03-17" edge="1">
          <mxGeometry relative="1" as="geometry" />
        </mxCell>
        <mxCell id="BBq_c_9lFQ12t3UlsD03-18" value="Sam the Mouse&lt;br&gt;(Act II)" style="rounded=0;whiteSpace=wrap;html=1;fontColor=#000000;" parent="1" vertex="1">
          <mxGeometry x="40" y="110" width="120" height="60" as="geometry" />
        </mxCell>
        <mxCell id="BBq_c_9lFQ12t3UlsD03-21" style="edgeStyle=orthogonalEdgeStyle;rounded=0;orthogonalLoop=1;jettySize=auto;html=1;exitX=0;exitY=0.5;exitDx=0;exitDy=0;entryX=1;entryY=0.5;entryDx=0;entryDy=0;fontColor=#000000;" parent="1" source="BBq_c_9lFQ12t3UlsD03-19" target="BBq_c_9lFQ12t3UlsD03-18" edge="1">
          <mxGeometry relative="1" as="geometry" />
        </mxCell>
        <mxCell id="BBq_c_9lFQ12t3UlsD03-19" value="Simon the Albatross&lt;br&gt;(Act II)" style="rounded=0;whiteSpace=wrap;html=1;fontColor=#000000;" parent="1" vertex="1">
          <mxGeometry x="170" y="110" width="120" height="60" as="geometry" />
        </mxCell>
        <mxCell id="BBq_c_9lFQ12t3UlsD03-24" value="Sentient Plant&lt;br&gt;(Act II)" style="rounded=0;whiteSpace=wrap;html=1;fontColor=#000000;" parent="1" vertex="1">
          <mxGeometry x="-130" y="140" width="120" height="60" as="geometry" />
        </mxCell>
        <mxCell id="BBq_c_9lFQ12t3UlsD03-25" value="&lt;font color=&quot;#000000&quot;&gt;Silof&lt;br&gt;(Act II)&lt;br&gt;&lt;/font&gt;" style="rounded=0;whiteSpace=wrap;html=1;fontColor=#FF3030;" parent="1" vertex="1">
          <mxGeometry x="80" y="330" width="120" height="60" as="geometry" />
        </mxCell>
        <mxCell id="BBq_c_9lFQ12t3UlsD03-27" value="" style="shape=image;html=1;verticalAlign=top;verticalLabelPosition=bottom;labelBackgroundColor=#ffffff;imageAspect=0;aspect=fixed;image=https://cdn1.iconfinder.com/data/icons/social-media-vol-3/24/_x-128.png;fontColor=#000000;" parent="1" vertex="1">
          <mxGeometry x="250" y="351" width="18" height="18" as="geometry" />
        </mxCell>
        <mxCell id="BBq_c_9lFQ12t3UlsD03-31" value="" style="edgeStyle=orthogonalEdgeStyle;rounded=0;orthogonalLoop=1;jettySize=auto;html=1;exitX=0;exitY=0.5;exitDx=0;exitDy=0;entryX=1;entryY=0.5;entryDx=0;entryDy=0;fontColor=#000000;endArrow=none;" parent="1" source="BBq_c_9lFQ12t3UlsD03-12" target="BBq_c_9lFQ12t3UlsD03-27" edge="1">
          <mxGeometry relative="1" as="geometry">
            <mxPoint x="290" y="360" as="sourcePoint" />
            <mxPoint x="220" y="360" as="targetPoint" />
          </mxGeometry>
        </mxCell>
        <mxCell id="BBq_c_9lFQ12t3UlsD03-39" style="edgeStyle=orthogonalEdgeStyle;rounded=0;orthogonalLoop=1;jettySize=auto;html=1;entryX=0.091;entryY=0.506;entryDx=0;entryDy=0;entryPerimeter=0;fontColor=#000000;" parent="1" source="BBq_c_9lFQ12t3UlsD03-32" target="BBq_c_9lFQ12t3UlsD03-36" edge="1">
          <mxGeometry relative="1" as="geometry" />
        </mxCell>
        <mxCell id="BBq_c_9lFQ12t3UlsD03-43" style="edgeStyle=orthogonalEdgeStyle;rounded=0;orthogonalLoop=1;jettySize=auto;html=1;entryX=0.25;entryY=1;entryDx=0;entryDy=0;fontColor=#000000;" parent="1" source="BBq_c_9lFQ12t3UlsD03-32" target="BBq_c_9lFQ12t3UlsD03-6" edge="1">
          <mxGeometry relative="1" as="geometry" />
        </mxCell>
        <mxCell id="BBq_c_9lFQ12t3UlsD03-52" style="edgeStyle=orthogonalEdgeStyle;rounded=0;orthogonalLoop=1;jettySize=auto;html=1;exitX=0;exitY=1;exitDx=0;exitDy=0;entryX=1;entryY=0.5;entryDx=0;entryDy=0;fontColor=#000000;" parent="1" source="BBq_c_9lFQ12t3UlsD03-32" target="BBq_c_9lFQ12t3UlsD03-51" edge="1">
          <mxGeometry relative="1" as="geometry" />
        </mxCell>
        <mxCell id="BBq_c_9lFQ12t3UlsD03-54" style="edgeStyle=orthogonalEdgeStyle;rounded=0;orthogonalLoop=1;jettySize=auto;html=1;exitX=0.5;exitY=1;exitDx=0;exitDy=0;entryX=0.5;entryY=0;entryDx=0;entryDy=0;fontColor=#000000;" parent="1" source="BBq_c_9lFQ12t3UlsD03-32" target="BBq_c_9lFQ12t3UlsD03-53" edge="1">
          <mxGeometry relative="1" as="geometry" />
        </mxCell>
        <mxCell id="BBq_c_9lFQ12t3UlsD03-32" value="&lt;font color=&quot;#ff3030&quot;&gt;Byron McAlister&lt;br&gt;(Act III)&lt;/font&gt;" style="rounded=0;whiteSpace=wrap;html=1;fontColor=#000000;" parent="1" vertex="1">
          <mxGeometry x="410" y="430" width="120" height="60" as="geometry" />
        </mxCell>
        <mxCell id="BBq_c_9lFQ12t3UlsD03-37" style="edgeStyle=orthogonalEdgeStyle;rounded=0;orthogonalLoop=1;jettySize=auto;html=1;exitX=1;exitY=0.5;exitDx=0;exitDy=0;entryX=0.16;entryY=0.55;entryDx=0;entryDy=0;entryPerimeter=0;fontColor=#000000;" parent="1" source="BBq_c_9lFQ12t3UlsD03-35" target="BBq_c_9lFQ12t3UlsD03-36" edge="1">
          <mxGeometry relative="1" as="geometry" />
        </mxCell>
        <mxCell id="BBq_c_9lFQ12t3UlsD03-35" value="Amelia (oof)&lt;br&gt;(Act III)" style="rounded=0;whiteSpace=wrap;html=1;fontColor=#000000;" parent="1" vertex="1">
          <mxGeometry x="630" y="370" width="120" height="60" as="geometry" />
        </mxCell>
        <mxCell id="BBq_c_9lFQ12t3UlsD03-36" value="Voodoopunk&lt;br&gt;(Act III)" style="ellipse;shape=cloud;whiteSpace=wrap;html=1;fontColor=#000000;" parent="1" vertex="1">
          <mxGeometry x="730" y="420" width="120" height="80" as="geometry" />
        </mxCell>
        <mxCell id="BBq_c_9lFQ12t3UlsD03-40" value="Elysium" style="ellipse;shape=cloud;whiteSpace=wrap;html=1;fontColor=#000000;" parent="1" vertex="1">
          <mxGeometry x="10" y="470" width="120" height="80" as="geometry" />
        </mxCell>
        <mxCell id="BBq_c_9lFQ12t3UlsD03-51" value="Wife no one cares about&lt;br&gt;(Act IV)" style="rounded=0;whiteSpace=wrap;html=1;fontColor=#000000;" parent="1" vertex="1">
          <mxGeometry x="220" y="480" width="120" height="60" as="geometry" />
        </mxCell>
        <mxCell id="BBq_c_9lFQ12t3UlsD03-53" value="&lt;font color=&quot;#ff0505&quot;&gt;Pricilla McAlister&lt;br&gt;(Act IV)&lt;/font&gt;" style="rounded=0;whiteSpace=wrap;html=1;fontColor=#000000;" parent="1" vertex="1">
          <mxGeometry x="365" y="580" width="120" height="60" as="geometry" />
        </mxCell>
        <mxCell id="YJ7HtjQ4nRSrqGDvQp0f-4" style="edgeStyle=orthogonalEdgeStyle;rounded=0;orthogonalLoop=1;jettySize=auto;html=1;exitX=0.5;exitY=1;exitDx=0;exitDy=0;entryX=0.4;entryY=0.1;entryDx=0;entryDy=0;entryPerimeter=0;fontColor=#000000;" edge="1" parent="1" source="BBq_c_9lFQ12t3UlsD03-55" target="YJ7HtjQ4nRSrqGDvQp0f-3">
          <mxGeometry relative="1" as="geometry" />
        </mxCell>
        <mxCell id="BBq_c_9lFQ12t3UlsD03-55" value="&lt;font color=&quot;#000000&quot;&gt;Soldier 7285&lt;br&gt;(Act IV)&lt;br&gt;&lt;/font&gt;" style="rounded=0;whiteSpace=wrap;html=1;fontColor=#FF0505;" parent="1" vertex="1">
          <mxGeometry x="560" y="550" width="120" height="60" as="geometry" />
        </mxCell>
        <mxCell id="YJ7HtjQ4nRSrqGDvQp0f-1" value="" style="shape=image;html=1;verticalAlign=top;verticalLabelPosition=bottom;labelBackgroundColor=#ffffff;imageAspect=0;aspect=fixed;image=https://cdn1.iconfinder.com/data/icons/social-media-vol-3/24/_x-128.png;fontColor=#000000;" vertex="1" parent="1">
          <mxGeometry x="386" y="571" width="78" height="78" as="geometry" />
        </mxCell>
        <mxCell id="YJ7HtjQ4nRSrqGDvQp0f-2" value="" style="shape=image;html=1;verticalAlign=top;verticalLabelPosition=bottom;labelBackgroundColor=#ffffff;imageAspect=0;aspect=fixed;image=https://cdn1.iconfinder.com/data/icons/social-media-vol-3/24/_x-128.png;fontColor=#000000;" vertex="1" parent="1">
          <mxGeometry x="216" y="206" width="68" height="68" as="geometry" />
        </mxCell>
        <mxCell id="YJ7HtjQ4nRSrqGDvQp0f-3" value="New Albion&lt;br&gt;Civil War" style="ellipse;shape=cloud;whiteSpace=wrap;html=1;fontColor=#000000;" vertex="1" parent="1">
          <mxGeometry x="540" y="649" width="120" height="80" as="geometry" />
        </mxCell>
      </root>
    </mxGraphModel>
  </diagram>
</mxfile>
